<?xml version="1.0" standalone="no"?>
<!DOCTYPE svg PUBLIC "-//W3C//DTD SVG 20010904//EN"
 "http://www.w3.org/TR/2001/REC-SVG-20010904/DTD/svg10.dtd">
<svg version="1.0" xmlns="http://www.w3.org/2000/svg"
 width="512.000000pt" height="512.000000pt" viewBox="0 0 512.000000 512.000000"
 preserveAspectRatio="xMidYMid meet">
<metadata>
Created by potrace 1.11, written by Peter Selinger 2001-2013
</metadata>
<g transform="translate(0.000000,512.000000) scale(0.100000,-0.100000)"
fill="#000000" stroke="none">
<path d="M2420 4958 c-337 -49 -527 -103 -766 -219 -291 -141 -561 -362 -746
-609 -154 -205 -323 -543 -394 -789 -64 -221 -79 -326 -79 -561 0 -318 63
-539 274 -959 249 -495 592 -899 1010 -1185 323 -222 714 -374 1120 -436 522
-80 950 -17 1236 181 226 156 387 422 423 699 24 194 -20 447 -138 780 -155
439 -179 514 -209 660 -26 130 -30 173 -36 410 -3 113 -7 223 -10 245 -2 22
-7 81 -11 130 -3 50 -8 92 -9 95 -2 3 -6 30 -10 60 -38 324 -181 766 -312 963
-56 85 -179 211 -278 285 -147 109 -364 200 -570 238 -105 19 -397 27 -495 12z"/>
</g>
</svg>
